<?xml version="1.0" encoding="utf-8"?>
<!-- Generator: Adobe Illustrator 11, SVG Export Plug-In  -->
<!DOCTYPE svg PUBLIC "-//W3C//DTD SVG 1.0//EN"    "http://www.w3.org/TR/2001/REC-SVG-20010904/DTD/svg10.dtd" [
	<!ENTITY ns_flows "http://ns.adobe.com/Flows/1.0/">
	<!ENTITY ns_svg "http://www.w3.org/2000/svg">
	<!ENTITY ns_xlink "http://www.w3.org/1999/xlink">
]>
<svg  xmlns="&ns_svg;" xmlns:xlink="&ns_xlink;" xmlns:a="http://ns.adobe.com/AdobeSVGViewerExtensions/3.0/"
	 width="240" height="320" viewBox="0.101 -16.333 240 320" xml:space="preserve">
	<defs>
	</defs>
	<g>
		<circle fill="#0000FF" cx="122.101" cy="245.667" r="9"/> 
		<line fill="none" stroke="#000000" x1="5.768" y1="0.667" x2="102.434" y2="240.667"/>
		<line fill="none" stroke="#000000" x1="237.768" y1="0.667" x2="141.768" y2="240"/>
		<line fill="none" stroke="#000000" stroke-dasharray="12" x1="121.768" y1="0" x2="121.768" y2="142"/>
		<path fill="none" stroke="#000000" d="M41.101,86.667c24.667-35.333,79.333-29.333,79.333-29.333"/>
		<g>
			<g  a:adobe-knockout="true">
				<polyline fill="none" stroke="#00FF00"  a:adobe-knockout="false" points="0.434,250.667 5.768,241.333 15.768,262 25.101,242 
					34.434,262 45.101,241.333 53.101,260.667 64.434,241.333 73.768,262 80.434,248 "/>
				<path fill="#00FF00"  a:adobe-knockout="false" d="M83.029,242.55c-0.269,3.017-0.161,6.971,0.619,9.761l-3.553-3.598
					l-5.033-0.491C77.719,247.069,80.857,244.661,83.029,242.55z"/>
			</g>
		</g>
		<g>
			<g  a:adobe-knockout="true">
				<polyline fill="none" stroke="#FF0000"  a:adobe-knockout="false" points="143.842,126.619 135.519,119.818 157.553,113.368 
					139.368,100.861 160.635,94.958 142.013,81.025 162.401,76.327 145.205,61.957 167.13,56.165 154.422,47.277 "/>
				<path fill="#FF0000"  a:adobe-knockout="false" d="M149.477,43.818c2.93,0.764,6.848,1.31,9.728,1.001l-4.134,2.911
					l-1.316,4.882C153.056,49.801,151.199,46.308,149.477,43.818z"/>
			</g>
		</g>
		<path d="M68.518,46.701c0-5.93,1.864-8.896,5.593-8.896c3.729,0,5.594,2.966,5.594,8.896c0,5.924-1.864,8.885-5.594,8.885
			C70.382,55.585,68.518,52.625,68.518,46.701z M70.674,45.867h6.875c-0.079-2.453-0.432-4.117-1.06-4.996
			c-0.628-0.877-1.429-1.316-2.401-1.316C71.897,39.555,70.76,41.659,70.674,45.867z M77.548,47.554h-6.875
			c0.086,4.188,1.231,6.281,3.437,6.281C76.324,53.835,77.469,51.742,77.548,47.554z"/>
		<path d="M139.925,278.656c-0.01,0.555-0.211,0.964-0.606,1.226c-0.396,0.265-0.826,0.396-1.292,0.396
			c-0.286,0-0.609-0.05-0.972-0.149c-0.362-0.101-0.646-0.187-0.856-0.253c-0.428,0.381-0.926,0.94-1.492,1.679
			c-0.566,0.74-1.101,1.554-1.605,2.446c0.229,0.902,0.434,1.671,0.614,2.312s0.376,1.283,0.587,1.928
			c0.181,0.588,0.465,1.06,0.852,1.412s0.895,0.528,1.525,0.528c0.229,0,0.543-0.031,0.945-0.093c0.4-0.064,0.711-0.134,0.93-0.212
			l-0.257,0.929c-0.914,0.373-1.602,0.618-2.063,0.73c-0.462,0.111-0.959,0.169-1.492,0.169c-0.667,0-1.217-0.152-1.65-0.457
			c-0.433-0.303-0.783-0.931-1.049-1.883c-0.191-0.695-0.347-1.276-0.466-1.747c-0.12-0.472-0.237-0.942-0.351-1.409
			c-0.438,0.657-0.801,1.219-1.086,1.681s-0.762,1.095-1.428,1.899c-0.582,0.694-1.117,1.188-1.603,1.48
			c-0.485,0.29-0.98,0.436-1.485,0.436c-0.447,0-0.816-0.131-1.107-0.393c-0.289-0.265-0.436-0.629-0.436-1.098
			c0-0.45,0.172-0.833,0.515-1.152c0.343-0.321,0.813-0.48,1.414-0.48c0.305,0,0.601,0.055,0.892,0.164
			c0.29,0.109,0.592,0.215,0.906,0.31c0.361-0.343,0.84-0.871,1.435-1.59s1.149-1.538,1.664-2.457
			c-0.181-0.671-0.378-1.406-0.593-2.211s-0.416-1.509-0.607-2.116c-0.247-0.752-0.533-1.237-0.855-1.452
			c-0.322-0.214-0.736-0.321-1.24-0.321c-0.275,0-0.567,0.033-0.877,0.103c-0.309,0.066-0.596,0.133-0.861,0.202l0.271-0.94
			c0.73-0.305,1.387-0.552,1.971-0.747s0.98-0.293,1.189-0.293c0.654,0,1.197,0.159,1.631,0.479
			c0.432,0.319,0.775,0.934,1.031,1.847c0.297,1.058,0.471,1.7,0.523,1.934s0.154,0.694,0.307,1.38
			c0.457-0.704,0.828-1.299,1.114-1.785c0.286-0.485,0.753-1.128,1.401-1.928c0.6-0.75,1.154-1.264,1.663-1.542
			c0.51-0.281,0.999-0.422,1.466-0.422c0.418,0,0.773,0.136,1.063,0.409C139.794,277.873,139.935,278.225,139.925,278.656z"/>
		<polygon fill="none" stroke="#000000" points="119.101,289.833 107.934,289.833 114.101,277.333 "/>
		<g>
			<g  a:adobe-knockout="true">
				<line fill="none" stroke="#000000"  a:adobe-knockout="false" x1="110.101" y1="266.333" x2="134.101" y2="266.333"/>
				<path  a:adobe-knockout="false" d="M140.136,266.333c-2.839,1.054-6.362,2.852-8.546,4.755l1.72-4.755l-1.72-4.755
					C133.773,263.482,137.297,265.28,140.136,266.333z"/>
				<path  a:adobe-knockout="false" d="M104.065,266.333c2.839-1.054,6.362-2.852,8.546-4.755l-1.72,4.755l1.72,4.755
					C110.428,269.185,106.904,267.386,104.065,266.333z"/>
			</g>
		</g>
	</g>
</svg>
