<?xml version="1.0" encoding="utf-8"?>
<!--  Based on Light_cone.svg , Incnis_Mrsi, 2008 -->
<!DOCTYPE svg PUBLIC "-//W3C//DTD SVG 1.1//EN" "http://www.w3.org/Graphics/SVG/1.1/DTD/svg11.dtd" [
	<!ENTITY ns_svg "http://www.w3.org/2000/svg">
	<!ENTITY ns_xlink "http://www.w3.org/1999/xlink">
	<!ENTITY st0 "stroke:#000000;stroke-width:6;">
	<!ENTITY st1 "fill:url(#XMLID_4_);stroke:#000000;stroke-width:0.5831;">
	<!ENTITY st2 "fill:none;stroke:#000000;stroke-width:1.5;">
	<!ENTITY st3 "font-family:'DejaVu Sans','Lucida Sans',sans-serif; font-weight:bold;">
	<!ENTITY st4 "fill:url(#XMLID_7_);stroke:#000000;stroke-width:0.5831;">
	<!ENTITY st5 "fill:none;stroke:#000000;stroke-width:2.25;">
	<!ENTITY st6 "fill:#FFFFFF;">
	<!ENTITY st7 "fill:none;">
	<!ENTITY st8 "font-size:27;">
	<!ENTITY st9 "font-size:36;">
	<!ENTITY st10 "opacity:0.8;fill:url(#XMLID_1_);">
	<!ENTITY st11 "opacity:0.8;fill:url(#XMLID_2_);">
	<!ENTITY st12 "opacity:0.8;fill:url(#XMLID_3_);">
	<!ENTITY st13 "opacity:0.8;fill:url(#XMLID_6_);">
	<!ENTITY st14 "font-family:'DejaVu Sans','Lucida Sans',sans-serif;">
	<!ENTITY st15 "fill:url(#XMLID_5_);stroke:#000000;stroke-width:0.5831;">
]>
<svg  version="1.1" id="Layer_2" xmlns="&ns_svg;" xmlns:xlink="&ns_xlink;" width="333" height="514.5" viewBox="0 0 333 514.5"
	 style="overflow:visible;enable-background:new 0 0 333 514.5;" xml:space="preserve">
<g>
	<linearGradient id="XMLID_8_" gradientUnits="userSpaceOnUse" x1="18.9648" y1="171.6445" x2="314.0352" y2="171.6445">
		<stop  offset="0" style="stop-color:#22B522"/>
		<stop  offset="1" style="stop-color:#CCCCCC"/>
	</linearGradient>
	<path style="opacity:0.8;fill:url(#XMLID_8_);" d="M166.5,76.4C85,76.4,19,92.4,19,112.1c0,2.9,1.4,5.7,4.1,8.4l143.4,146.4
		l143.4-146.3c2.7-2.7,4.2-5.6,4.2-8.5C314,92.4,248,76.4,166.5,76.4z"/>
	
		<linearGradient id="XMLID_9_" gradientUnits="userSpaceOnUse" x1="-641.5723" y1="371.7617" x2="-354.7637" y2="371.7617" gradientTransform="matrix(-1 0 0 -1 -331.625 711.8398)">
		<stop  offset="0" style="stop-color:#22B522"/>
		<stop  offset="1" style="stop-color:#AFB1FF"/>
	</linearGradient>
	<path style="opacity:0.8;fill:url(#XMLID_9_);" d="M23.1,413.2c15.7-15.6,73.9-27.3,143.4-27.3c69.6,0,127.9,11.7,143.4,27.4
		L166.5,266.9L23.1,413.2z"/>
	<g>
		<g>
			<line style="&st5;" x1="166.5" y1="479.4" x2="166.5" y2="33.4"/>
			<path d="M166.5,35.7l-8.1,4.9l-0.2-0.3l5.2-13.2c1-4.6,2-9.2,3-13.8c1,4.6,2,9.2,3,13.8l5.2,13.2l-0.1,0.3L166.5,35.7z"/>
			<g>
				<polygon points="158.5,486.3 158.9,485.9 165.4,479.4 165.4,498.9 158.5,505.9 				"/>
				<path d="M174.3,505.9l-6.6-7v-19.5c1.9,2.5,4.2,4.8,6.6,6.9V505.9z"/>
			</g>
		</g>
	</g>
	<path style="&st2;" d="M309.9,413.2c2.7,2.7,4.1,5.5,4.1,8.5c0,19.7-66.1,35.7-147.5,35.7S19,441.4,19,421.7c0-2.9,1.4-5.7,4.1-8.4
		c15.6-15.7,73.9-27.3,143.4-27.3C236,385.9,294.2,397.5,309.9,413.2z"/>
	<linearGradient id="XMLID_10_" gradientUnits="userSpaceOnUse" x1="18.9648" y1="362.1445" x2="314.0352" y2="362.1445">
		<stop  offset="0" style="stop-color:#FFFFFF"/>
		<stop  offset="1" style="stop-color:#090058"/>
	</linearGradient>
	<path style="opacity:0.8;fill:url(#XMLID_10_);" d="M309.9,413.2c2.7,2.7,4.1,5.5,4.1,8.5c0,19.7-66.1,35.7-147.5,35.7
		S19,441.4,19,421.7c0-2.9,1.4-5.7,4.1-8.4l143.4-146.4L309.9,413.2z"/>
	<path style="&st2;" d="M309.9,413.2c2.7,2.7,4.1,5.5,4.1,8.5c0,19.7-66.1,35.7-147.5,35.7S19,441.4,19,421.7c0-2.9,1.4-5.7,4.1-8.4
		l143.4-146.4L309.9,413.2z"/>
	<path style="&st2;" d="M166.5,76.4C85,76.4,19,92.4,19,112.1c0,2.9,1.4,5.7,4.1,8.4l143.4,146.4l143.4-146.3
		c2.7-2.7,4.2-5.6,4.2-8.5C314,92.4,248,76.4,166.5,76.4z"/>
	<g>
		<g>
			<line style="&st5;" x1="53.2" y1="266.4" x2="279.8" y2="266.4"/>
			<path d="M277.5,266.4l-4.9-8.1l0.3-0.2l13.2,5.2c4.6,1,9.2,2,13.8,3c-4.6,1-9.2,2-13.8,3l-13.2,5.2l-0.3-0.1L277.5,266.4z"/>
			<path d="M55.5,266.4l4.9,8.1l-0.3,0.2l-13.2-5.2c-4.6-1-9.2-2-13.8-3c4.6-1,9.2-2,13.8-3l13.2-5.2l0.3,0.1L55.5,266.4z"/>
		</g>
	</g>
	
		<linearGradient id="XMLID_13_" gradientUnits="userSpaceOnUse" x1="22.9932" y1="486.7969" x2="309.8037" y2="486.7969" gradientTransform="matrix(1 0 0 1 5.761719e-02 -293.0859)">
		<stop  offset="0" style="stop-color:#FFFF99"/>
		<stop  offset="1" style="stop-color:#22B522"/>
	</linearGradient>
	<path style="opacity:0.8;fill:url(#XMLID_13_);" d="M309.9,120.6c-15.7,15.6-73.9,27.3-143.4,27.3c-69.6,0-127.9-11.7-143.4-27.4
		l143.4,146.4L309.9,120.6z"/>
	<path style="&st2;" d="M309.9,120.6c-15.7,15.6-73.9,27.3-143.4,27.3c-69.6,0-127.9-11.7-143.4-27.4l143.4,146.4L309.9,120.6z"/>
	<g>
		
			<radialGradient id="XMLID_14_" cx="168.1133" cy="268.6689" r="6.9149" gradientTransform="matrix(1 0 0 1 7.763672e-02 0.1865)" gradientUnits="userSpaceOnUse">
			<stop  offset="0" style="stop-color:#FFBDBD"/>
			<stop  offset="0.107" style="stop-color:#FFB3B3"/>
			<stop  offset="0.2893" style="stop-color:#FF9898"/>
			<stop  offset="0.5248" style="stop-color:#FF6C6C"/>
			<stop  offset="0.8013" style="stop-color:#FF3030"/>
			<stop  offset="1" style="stop-color:#FF0000"/>
		</radialGradient>
		<circle style="fill:url(#XMLID_14_);stroke:#000000;stroke-width:0.5831;" cx="166.5" cy="266.9" r="9.2"/>
		<path style="&st6;" d="M162.7,263.1c1.3-1.3,2.9-2.2,4.4-2.5c-1.5-1.2-4-0.8-5.9,1c-1.8,1.8-2.3,4.4-1,5.9
			C160.6,266,161.4,264.5,162.7,263.1z"/>
	</g>
	<text transform="matrix(1 0 0 1 178.292 52.8984)" style="&st14; &st8;">Time</text>
	<text transform="matrix(1 0 0 1 232.1328 296.3945)" style="&st14; &st8;">Space</text>
</g>
<rect style="&st7;" width="333" height="514.5"/>
</svg>
