<?xml version="1.0" encoding="utf-8"?>
<!DOCTYPE svg PUBLIC "-//W3C//DTD SVG 1.1//EN" "http://www.w3.org/Graphics/SVG/1.1/DTD/svg11.dtd">
<svg version="1.1" id="Layer_1" xmlns="http://www.w3.org/2000/svg" xmlns:xlink="http://www.w3.org/1999/xlink" x="0px" y="0px"
	 width="480px" height="440px" viewBox="0 0 480 440" xml:space="preserve">
<rect x="12.38" y="377.51" fill="#505050" stroke="#505050" stroke-width="1" stroke-linejoin="bevel" stroke-miterlimit="10" width="449.76" height="0.3"/>
<path fill="#505050" stroke="#505050" stroke-width="0.5" stroke-linejoin="bevel" stroke-miterlimit="10" d="M12.88,378.01
	v3.998h-1v-3.998H12.88L12.88,378.01z M57.857,378.01v3.998h-1v-3.998H57.857L57.857,378.01z M102.835,378.01v3.998h-1v-3.998
	H102.835L102.835,378.01z M147.813,378.01v3.998h-1v-3.998H147.813L147.813,378.01z M192.791,378.01v3.998h-1v-3.998H192.791
	L192.791,378.01z M237.769,378.01v3.998h-0.999v-3.998H237.769L237.769,378.01z M282.74,378.01v3.998h-1v-3.998H282.74
	L282.74,378.01z M327.712,378.01v3.998h-1v-3.998H327.712L327.712,378.01z M372.688,378.01v3.998h-1v-3.998H372.688L372.688,378.01z
	 M417.667,378.01v3.998h-1v-3.998H417.667L417.667,378.01z M462.646,378.01v3.998h-1v-3.998H462.646L462.646,378.01z"/>
<path fill="#0000FF" stroke="#0000FF" stroke-width="1" stroke-linejoin="bevel" stroke-miterlimit="10" d="M12.63,253.857
	l4.498,0.688l2.312,0.438l2.437,0.813c0.063,0,0.187,0.063,0.25,0.063l4.498,2.373l4.685,3.371l4.623,4.186l4.561,4.809l4.56,5.494
	l4.561,5.996l4.498,6.432l4.498,6.684l4.498,6.807l4.561,6.932l4.435,6.744l4.498,6.559l4.498,6.119l4.435,5.684l4.498,5.059
	l4.373,4.309l4.435,3.561l4.311,2.686l-0.188-0.125l4.498,1.873l-0.312-0.063l4.498,0.938l-0.313-0.063h4.498l-0.25,0.063
	l4.498-0.938l-0.313,0.063l4.498-1.873l-0.187,0.125l4.498-2.811l4.311-3.498l4.435-4.371l4.373-4.996l4.498-5.621l4.436-6.182
	l4.498-6.496l4.436-6.744l4.498-6.869l4.498-6.869l4.56-6.684l4.498-6.369l4.498-5.996l4.561-5.494l4.56-4.809l4.56-4.123
	l4.623-3.371c0.063-0.063,0.125-0.063,0.187-0.125l4.498-2.311c0.125,0,0.188-0.063,0.25-0.063l4.498-1.438
	c0.125-0.063,0.188-0.063,0.313-0.063l4.498-0.5c0.125-0.063,0.188-0.063,0.313,0l4.498,0.5c0.125,0,0.188,0,0.313,0.063
	l4.498,1.438c0.063,0,0.125,0.063,0.187,0.063l4.498,2.311c0.125,0.063,0.188,0.063,0.25,0.125l4.498,3.246l4.623,4.186l4.56,4.809
	l4.56,5.494l4.56,5.996l4.498,6.432l4.495,6.684l4.56,6.869l4.498,6.869l4.435,6.744l4.497,6.559l4.498,6.119l4.435,5.684
	l4.496,5.059l4.372,4.309l4.435,3.561l4.31,2.686l-0.188-0.125l4.497,1.873l-0.312-0.063l4.497,0.938l-0.313-0.063h4.497
	l-0.25,0.063l4.497-0.938l-0.313,0.063l4.498-1.873l-0.188,0.125l4.498-2.811l4.311-3.498l4.436-4.371l4.371-4.996l4.498-5.621
	l4.436-6.182l4.498-6.496l4.436-6.744l4.498-6.932l4.498-6.807l4.561-6.684l4.496-6.369l4.498-5.996l4.561-5.494l4.561-4.809
	l4.561-4.123l4.623-3.371l4.684-2.498c0.125,0,0.188-0.063,0.25-0.063l4.498-1.375c0.125-0.063,0.188-0.063,0.313-0.063l4.498-0.5
	c0.125-0.063,0.188-0.063,0.313,0l4.498,0.5c0.125,0,0.188,0,0.25,0.063l4.498,1.375c0.125,0,0.188,0.063,0.313,0.063l4.496,2.373
	l4.686,3.371l4.623,4.186l4.561,4.809l4.561,5.494l4.561,5.996l4.498,6.494l4.496,6.621c0.5,0.686,0.313,1.623-0.375,2.061
	c-0.686,0.5-1.623,0.313-2.061-0.375l-4.498-6.619l-4.498-6.371l-4.436-5.869l-4.434-5.371l-4.436-4.684l-4.373-3.936l-4.311-3.123
	l-4.498-2.373l0.25,0.063l-4.498-1.373l0.313,0.063l-4.498-0.5h0.313l-4.498,0.5l0.25-0.063l-4.498,1.373l0.313-0.063l-4.311,2.25
	l-4.373,3.121l-4.436,3.998l-4.434,4.684l-4.436,5.371l-4.498,5.869l-4.498,6.371l-4.498,6.682l-4.436,6.807l-4.561,6.932
	l-4.498,6.746l-4.496,6.619l-4.561,6.184l-4.498,5.744l-4.623,5.246l-4.561,4.496l-4.686,3.748l-4.496,2.811
	c-0.063,0.063-0.125,0.063-0.188,0.125l-4.498,1.873c-0.125,0-0.188,0.063-0.313,0.063l-4.498,0.936c-0.063,0-0.188,0-0.313,0
	h-4.497c-0.063,0-0.188,0-0.25,0l-4.497-0.936c-0.125,0-0.188-0.063-0.313-0.063l-4.496-1.873c-0.063-0.063-0.125-0.063-0.187-0.125
	l-4.685-2.936l-4.56-3.686l-4.623-4.559l-4.497-5.184l-4.56-5.682l-4.498-6.246l-4.558-6.557l-4.498-6.746l-4.498-6.869
	l-4.435-6.869l-4.497-6.682l-4.498-6.309l-4.435-5.869l-4.433-5.371l-4.436-4.684l-4.373-3.936l-4.498-3.246l0.188,0.123
	l-4.498-2.311l0.25,0.063l-4.498-1.436l0.313,0.063l-4.498-0.5h0.313l-4.498,0.5l0.312-0.063l-4.498,1.436l0.188-0.063l-4.498,2.311
	l0.25-0.123l-4.373,3.121l-4.435,3.998l-4.436,4.684l-4.435,5.371l-4.498,5.869l-4.498,6.371l-4.436,6.682l-4.498,6.869
	l-4.561,6.869l-4.498,6.746l-4.498,6.619l-4.56,6.184l-4.498,5.744l-4.623,5.246l-4.56,4.496l-4.686,3.748l-4.498,2.811
	c-0.063,0.063-0.125,0.063-0.188,0.125l-4.498,1.873c-0.125,0-0.188,0.063-0.313,0.063l-4.498,0.936c-0.063,0-0.188,0-0.313,0
	h-4.498c-0.062,0-0.187,0-0.25,0l-4.498-0.936c-0.125,0-0.188-0.063-0.312-0.063l-4.498-1.873c-0.063-0.063-0.125-0.063-0.188-0.125
	l-4.685-2.936l-4.56-3.686l-4.623-4.559l-4.498-5.184l-4.561-5.682l-4.498-6.246l-4.56-6.557l-4.498-6.746l-4.498-6.932
	l-4.436-6.807l-4.498-6.682l-4.498-6.309l-4.435-5.869l-4.436-5.371l-4.435-4.684l-4.373-3.936l-4.311-3.123l-4.498-2.373
	l0.25,0.063l-2.062-0.686l-2.187-0.438l-4.498-0.688c-0.812-0.125-1.374-0.873-1.249-1.686S11.818,253.732,12.63,253.857
	L12.63,253.857z"/>
<path fill="#00FF00" stroke="#00FF00" stroke-width="1" stroke-linejoin="bevel" stroke-miterlimit="10" d="M12.567,130.896
	l4.498,0.5l4.623,0.812c0.063,0,0.125,0,0.188,0.063l4.498,1.561l4.685,2.248l4.623,2.873l4.623,3.372l4.56,3.872l4.561,4.309
	l4.56,4.684l4.498,4.996l4.56,5.308l4.498,5.433l8.996,11.241l8.995,11.116l8.996,10.497l4.436,4.808l4.435,4.37l4.436,3.996
	l4.436,3.498l4.435,2.998l4.373,2.373l4.373,1.81l4.311,1.248h-0.188l4.498,0.625l4.248-0.063l4.311-0.563h-0.188l4.498-1.311
	l4.31-1.81l4.373-2.435l4.373-2.935l4.373-3.498l4.436-3.996l4.498-4.433l4.435-4.745l4.436-5.063l8.996-10.867l8.996-11.241
	l8.996-11.054l4.498-5.246l4.561-5.059l4.498-4.622l4.561-4.309l4.56-3.872l4.56-3.372l4.622-2.873l4.623-2.248l4.685-1.624
	l4.622-1.062c0.063,0,0.188,0,0.25,0l4.498-0.312l4.685,0.312c0.063,0,0.188,0,0.248,0l4.498,1l4.622,1.624l4.685,2.248l4.622,2.873
	l4.622,3.372l4.56,3.872l4.558,4.309l4.56,4.684l4.498,4.996l4.56,5.308l8.995,11.054l8.994,11.241l8.996,10.867l4.498,5.125
	l4.436,4.745l4.436,4.37l4.498,4.058l4.436,3.56l4.371,2.873l4.373,2.435l4.373,1.81l4.311,1.248h-0.188l4.498,0.625l4.248-0.063
	l4.311-0.563h-0.188l4.498-1.311l4.311-1.81l4.373-2.435l4.373-2.935l4.434-3.498l4.436-3.933l4.436-4.433l4.436-4.808l8.934-10.434
	l8.996-11.116l8.994-11.241l8.996-10.679c0.563-0.625,1.5-0.687,2.123-0.188c0.625,0.562,0.688,1.499,0.188,2.123l-8.994,10.617
	l-8.996,11.304l-8.996,11.116l-9.059,10.558l-4.559,4.933l-4.561,4.433l-4.561,4.058l-4.561,3.623l-4.623,3.123l-4.623,2.623
	l-4.684,1.935l-4.498,1.311c-0.063,0-0.125,0-0.188,0l-4.748,0.625h-4.686l-4.498-0.625c-0.063,0-0.125,0-0.188,0l-4.684-1.373
	l-4.623-1.998l-4.623-2.56l-4.623-3.06l-4.561-3.685l-4.498-4.058l-4.561-4.496l-4.559-4.87l-4.498-5.122l-8.996-10.932
	l-8.995-11.179l-8.993-11.054l-4.435-5.184l-4.498-4.996l-4.435-4.559l-4.435-4.185l-4.435-3.747l-4.373-3.247l-4.372-2.748
	l-4.31-2.123l-4.371-1.499l-4.498-0.999h0.25l-4.31-0.313l-4.498,0.313h0.25l-4.372,0.937l-4.31,1.499l-4.372,2.123l-4.373,2.748
	l-4.435,3.248l-4.436,3.747l-4.435,4.185l-4.498,4.621l-4.436,4.934l-4.498,5.246l-8.995,10.991l-8.996,11.304l-8.996,10.869
	l-4.561,5.185l-4.56,4.87l-4.498,4.433l-4.56,4.12l-4.623,3.685l-4.623,3.06l-4.623,2.623l-4.685,1.935l-4.498,1.311
	c-0.063,0-0.125,0-0.188,0l-4.748,0.625h-4.685l-4.498-0.625c-0.063,0-0.125,0-0.188,0l-4.686-1.373l-4.623-1.998l-4.623-2.56
	l-4.561-3.123l-4.56-3.623l-4.56-3.995l-4.561-4.496l-4.56-4.933L83.22,195.22l-8.996-11.179l-8.996-11.179l-4.498-5.433
	l-4.435-5.184l-4.498-4.996l-4.436-4.559l-4.436-4.185l-4.435-3.747l-4.373-3.247l-4.373-2.748l-4.311-2.123l-4.498-1.562
	l0.187,0.063l-4.373-0.812l-4.498-0.5c-0.812-0.063-1.437-0.812-1.312-1.624C11.006,131.395,11.755,130.771,12.567,130.896
	L12.567,130.896z"/>
<path fill="#FF0000" stroke="#FF0000" stroke-width="1" stroke-linejoin="bevel" stroke-miterlimit="10" d="M12.505,7.93
	l4.498,0.25l4.56,0.437l9.183,2.061l9.183,3.372l9.121,4.622l9.121,5.621l9.121,6.62l9.058,7.307l8.996,7.807l8.996,8.119
	l9.058,8.181l8.933,8.056L121.326,78l8.933,7.057l8.933,6.245l8.933,5.308l8.871,4.184l8.809,2.936l4.373,0.937l4.373,0.687
	l4.373,0.375l4.373-0.062l8.871-1l8.746-2.373l8.871-3.56l8.808-4.747l8.871-5.808l8.933-6.62l8.932-7.369l8.994-7.869l8.932-8.056
	l8.996-8.181l9.055-7.994l8.994-7.557l9.057-6.994l9.055-6.058l9.12-5.183l9.12-4.06l9.184-2.748l9.182-1.374
	c0.063,0,0.125-0.063,0.188-0.063h8.996c0.125,0,0.188,0.063,0.25,0.063l8.996,1.374l9.182,2.685l9.184,3.997l9.121,5.246
	l9.119,6.12l9.059,6.932l9.059,7.557l8.996,8.056l9.057,8.181l8.996,8.119l8.934,7.806l8.994,7.432
	c0.625,0.5,0.688,1.499,0.188,2.124c-0.498,0.625-1.498,0.687-2.123,0.188l-8.996-7.432l-9.059-7.932l-8.994-8.118l-8.934-8.181
	l-8.996-7.931l-8.932-7.494l-8.934-6.87l-8.871-5.996l-8.871-5.058l-8.809-3.872l-8.807-2.623l-8.996-1.374h0.188h-8.996h0.25
	l-8.809,1.312l-8.807,2.623l-8.871,3.872l-8.87,5.059l-8.932,5.995l-8.93,6.932l-8.995,7.432l-8.932,7.994l-8.995,8.181
	l-9.055,8.181l-8.995,7.869l-9.057,7.494l-9.058,6.745l-9.121,5.933l-9.183,4.871l-9.121,3.685l-9.245,2.373l-9.183,1.062h-4.623
	l-4.561-0.375l-4.623-0.687l-4.623-1.062l-9.183-3.06l-9.121-4.309l-9.058-5.433l-9.058-6.37l-9.058-7.057l-9.058-7.744
	l-8.995-8.056l-8.996-8.181l-8.933-7.994l-8.996-7.806l-8.933-7.182l-8.871-6.495l-8.871-5.496l-8.871-4.497l-8.809-3.248
	l-8.808-2.061l-4.435-0.437l-4.498-0.25c-0.812,0-1.437-0.75-1.374-1.562C10.943,8.492,11.693,7.867,12.505,7.93L12.505,7.93z"/>
<text transform="matrix(1 0 0 1 8.93 404)" font-family="'Arial'" font-size="13">0</text>
<text transform="matrix(1 0 0 1 49.01 404)" font-family="'Arial'" font-size="13">0.1</text>
<text transform="matrix(1 0 0 1 94.08 404)" font-family="'Arial'" font-size="13">0.2</text>
<text transform="matrix(1 0 0 1 139.15 404)" font-family="'Arial'" font-size="13">0.3</text>
<text transform="matrix(1 0 0 1 184.21 404)" font-family="'Arial'" font-size="13">0.4</text>
<text transform="matrix(1 0 0 1 229.28 404)" font-family="'Arial'" font-size="13">0.5</text>
<text transform="matrix(1 0 0 1 274.35 404)" font-family="'Arial'" font-size="13">0.6</text>
<text transform="matrix(1 0 0 1 319.42 404)" font-family="'Arial'" font-size="13">0.7</text>
<text transform="matrix(1 0 0 1 364.48 404)" font-family="'Arial'" font-size="13">0.8</text>
<text transform="matrix(1 0 0 1 409.55 404)" font-family="'Arial'" font-size="13">0.9</text>
<text transform="matrix(1 0 0 1 459.61 404)" font-family="'Arial'" font-size="13">1</text>
<text transform="matrix(1 0 0 1 177.6 427)" font-family="'Arial'" font-size="14">Distance (microns)</text>
</svg>
